<svg xmlns="http://www.w3.org/2000/svg" viewBox="0 0 400 400" fill="none" shape-rendering="auto"><desc>"Adventurer Neutral" by "Lisa Wischofsky", licensed under "CC BY 4.0". / Remix of the original. - Created with dicebear.com</desc><metadata xmlns:dc="http://purl.org/dc/elements/1.1/" xmlns:cc="http://creativecommons.org/ns#" xmlns:rdf="http://www.w3.org/1999/02/22-rdf-syntax-ns#"><rdf:RDF><cc:Work><dc:title>Adventurer Neutral</dc:title><dc:creator><cc:Agent rdf:about="https://www.instagram.com/lischi_art/"><dc:title>Lisa Wischofsky</dc:title></cc:Agent></dc:creator><dc:source>https://www.figma.com/community/file/1184595184137881796</dc:source><cc:license rdf:resource="https://creativecommons.org/licenses/by/4.0/" /></cc:Work></rdf:RDF></metadata><mask id="viewboxMask"><rect width="400" height="400" rx="0" ry="0" x="0" y="0" fill="#fff" /></mask><g mask="url(#viewboxMask)"><rect fill="#f2d3b1" width="400" height="400" x="0" y="0" /><g transform="translate(-279 -322)"><path fill-rule="evenodd" clip-rule="evenodd" d="M612.99 456.04a65.1 65.1 0 0 0-38.46-29.54 66.07 66.07 0 0 0-39.02 1.1 65.93 65.93 0 0 0-36.82 32.08c-3.28 6.32-5.17 13.09-6.5 20.06-4.4.35-8.76.83-13.04 1.93.19.5.3 1.03.4 1.54.27 1.36.52 2.6 2.24 2.92 2.35.22 4.76 0 7.15-.22.92-.08 1.84-.16 2.75-.22-.56 12.87 2.24 25.63 8.92 36.7a65.2 65.2 0 0 0 40.45 30.25 65.99 65.99 0 0 0 37-1.54 65.75 65.75 0 0 0 34.03-27A65.76 65.76 0 0 0 622.15 490c.06-3.79-.4-7.45-.86-11.15l-.35-2.92c.94-.1 1.9-.19 2.86-.27 2.31-.2 4.64-.4 6.85-.98 1.2-.46 1.44-1.64 1.68-2.8.1-.48.2-.95.36-1.37-4.4-1.13-8.7-.78-13.15-.28-.5-1.18-1-2.35-1.47-3.53-1.5-3.64-2.98-7.25-5.08-10.67Zm.6 14.63c-4.83-13.64-13.96-25.42-26.55-32.68-13.32-7.97-29.57-10.1-44.6-6.46a59.5 59.5 0 0 0-35.54 25.37c-4.25 6.8-7.73 14.51-8.83 22.5a439.7 439.7 0 0 1 17.89-1.48c4.84-.34 9.69-.67 14.53-1.14 3.63-.32 7.27-.51 10.91-.7 4.86-.25 9.72-.5 14.54-1.08 16.39-1.12 32.79-2.4 49.17-3.67l8.47-.66Zm-200.21-17.1c11.97 6.5 20.98 17.4 25.57 30.16 2.69.16 5.36.38 8.03.75l-.1.7c-.16 1.02-.31 2.03-.6 3.05-1.04.76-2.47 1.03-3.83 1.29-.57.1-1.13.21-1.65.35 1.33 8.86 1.68 17.54-.78 26.25a54.8 54.8 0 0 1-59.8 40.22 54.77 54.77 0 0 1-39.64-24.94c-6.25-9.68-8.98-21.04-8.76-32.5-2.42-.02-4.82-.1-7.23-.28.08-.37.11-.82.15-1.3.1-1.25.2-2.69 1.15-3.27 1.54-.49 3.19-.68 4.81-.88a72.5 72.5 0 0 0 1.82-.23c1.4-6.54 3.35-12.87 6.78-18.66a55.05 55.05 0 0 1 74.08-20.7Zm19.77 30.84c-7.08-18.8-25.97-32.07-46.15-31.85-18.18-.19-35.6 10.43-43.83 26.64-2.2 4.2-3.57 8.69-4.72 13.28 7-.47 14-1.08 20.99-1.7 6.19-.54 12.38-1.08 18.58-1.52 3.77-.09 7.52-.47 11.26-.85 3.9-.4 7.78-.8 11.7-.86l6.3-.46c8.65-.6 17.33-1.22 25.87-2.67Z" fill="#000"/><path d="M615.13 476.4c1.79 9.43 1.83 19.44-.85 28.71a59.84 59.84 0 0 1-26.86 35.35c-11.86 6.95-25.9 9.98-39.53 7.74a59.74 59.74 0 0 1-40.06-25.03c-7.65-11.07-11.16-24.46-10.6-37.86 2.78-.26 5.55-.53 8.32-.81.58 6.88 2.87 13.16 8.1 17.84 9.27 8.8 25.13 8.57 33.96-.73 5.71-5.52 7.56-12.65 7.15-20.42 4.5-.5 8.95-1.1 13.47-1.39 15.64-.93 31.25-2.54 46.9-3.4ZM430.93 490.81c1.23-.4 2.51-.66 3.76-.97 3.28 11.9 1.31 24.64-4.45 35.44a49.5 49.5 0 0 1-33.98 24.89c-17.42 3.66-36.18-3.36-47.37-17.1-8.08-9.7-11.83-22.11-11.18-34.67 16.43-1.6 32.94-2.6 49.35-4.39.17 5.54 1.15 10.77 4.71 15.18a22.27 22.27 0 0 0 23.42 7.93c7.1-2.26 13-7.85 15.04-15.1 1.18-3.81.53-7.35.7-11.2Z" fill="#fff"/></g><g transform="translate(-279 -322)"><path d="M523.24 384.36c6.17-.42 13.1-.61 18.45 2.95 3.68 2.44 5.4 6.35 4.48 10.74-1.55 6.16-6.62 10.92-11.61 14.5a67.57 67.57 0 0 1-30.57 11.53c-5.61.53-12.5.43-17.47-2.55-3.63-2.13-5.9-6.12-5.2-10.36 1.02-5.75 5.5-10.5 9.94-13.96 9.19-7.03 20.55-11.34 31.98-12.85ZM392.22 401.23c9.1-.36 18.3.5 26.3 5.24 3.86 2.26 7.35 5.89 7.9 10.49.34 4.21-1.96 7.8-5.19 10.27-4.52 3.55-9.87 5-15.43 6-9.95 1-20.55.31-29.48-4.6-3.87-2.28-7.88-5.84-8.47-10.56-.73-4.27 2.02-8.47 5.39-10.84 5.4-3.87 12.43-5.69 18.98-6Z" fill="#000"/></g><g transform="translate(-279 -322)"><path d="M517.9 557.82c1.53.3 2.76 1.6 2.73 3.2-7.1 16.81-15.06 33.2-25.17 48.42-4.62 6.97-9.13 14.14-14.43 20.6-2.18 3.28-7.96 2.93-10.79.73a126.22 126.22 0 0 1-19.13-16.87c-9.22-10.37-17.94-20.12-24.71-32.38-.81-1.89-2.3-3.93-.75-5.87.54-1.24 2.97-.86 3.53.16a140.4 140.4 0 0 0 18.52 25.5c6.97 8.1 14.24 15.75 22.74 22.28 1.12.8 2.37 1.74 3.7 2.1 2.62.27 3.9-1.32 5.33-3.2 13.52-19.02 25.72-38.75 34.68-60.37.81-2 1.46-3.68 3.75-4.3Z" fill="#000"/></g><g transform="translate(-279 -322)"></g></g></svg>